<!-- Synapse Language Icon System -->
<!-- Professional SVG icons without emoji dependencies -->
<svg xmlns="http://www.w3.org/2000/svg" style="display: none;">
    
    <!-- Quantum Computing Icon -->
    <symbol id="icon-quantum" viewBox="0 0 24 24">
        <circle cx="12" cy="12" r="8" stroke="currentColor" stroke-width="2" fill="none"/>
        <line x1="12" y1="4" x2="12" y2="20" stroke="currentColor" stroke-width="2"/>
        <line x1="4" y1="12" x2="20" y2="12" stroke="currentColor" stroke-width="2"/>
        <circle cx="12" cy="8" r="2" fill="currentColor"/>
        <circle cx="8" cy="12" r="2" fill="currentColor"/>
        <circle cx="16" cy="12" r="2" fill="currentColor"/>
        <circle cx="12" cy="16" r="2" fill="currentColor"/>
    </symbol>
    
    <!-- Neural Network Icon -->
    <symbol id="icon-neural" viewBox="0 0 24 24">
        <circle cx="5" cy="8" r="2" stroke="currentColor" stroke-width="2" fill="none"/>
        <circle cx="5" cy="16" r="2" stroke="currentColor" stroke-width="2" fill="none"/>
        <circle cx="12" cy="5" r="2" stroke="currentColor" stroke-width="2" fill="none"/>
        <circle cx="12" cy="12" r="2" stroke="currentColor" stroke-width="2" fill="none"/>
        <circle cx="12" cy="19" r="2" stroke="currentColor" stroke-width="2" fill="none"/>
        <circle cx="19" cy="8" r="2" stroke="currentColor" stroke-width="2" fill="none"/>
        <circle cx="19" cy="16" r="2" stroke="currentColor" stroke-width="2" fill="none"/>
        <path d="M7 8h3M14 8h3M7 16h3M14 16h3M12 7v3M12 14v3" stroke="currentColor" stroke-width="1" opacity="0.5"/>
    </symbol>
    
    <!-- Blockchain Icon -->
    <symbol id="icon-blockchain" viewBox="0 0 24 24">
        <rect x="3" y="3" width="6" height="6" stroke="currentColor" stroke-width="2" fill="none"/>
        <rect x="9" y="9" width="6" height="6" stroke="currentColor" stroke-width="2" fill="none"/>
        <rect x="15" y="15" width="6" height="6" stroke="currentColor" stroke-width="2" fill="none"/>
        <path d="M9 6h3v3M15 12h3v3" stroke="currentColor" stroke-width="2"/>
    </symbol>
    
    <!-- Distributed Computing Icon -->
    <symbol id="icon-distributed" viewBox="0 0 24 24">
        <rect x="2" y="2" width="5" height="5" stroke="currentColor" stroke-width="2" fill="none"/>
        <rect x="17" y="2" width="5" height="5" stroke="currentColor" stroke-width="2" fill="none"/>
        <rect x="2" y="17" width="5" height="5" stroke="currentColor" stroke-width="2" fill="none"/>
        <rect x="17" y="17" width="5" height="5" stroke="currentColor" stroke-width="2" fill="none"/>
        <circle cx="12" cy="12" r="3" stroke="currentColor" stroke-width="2" fill="none"/>
        <path d="M7 4.5h3M14 4.5h3M7 19.5h3M14 19.5h3M4.5 7v3M4.5 14v3M19.5 7v3M19.5 14v3" stroke="currentColor" stroke-width="1"/>
    </symbol>
    
    <!-- Uncertainty Icon -->
    <symbol id="icon-uncertainty" viewBox="0 0 24 24">
        <path d="M12 3v18M3 12h18" stroke="currentColor" stroke-width="2" stroke-linecap="round"/>
        <path d="M8 8l8 0M8 16l8 0" stroke="currentColor" stroke-width="1" opacity="0.5"/>
        <circle cx="12" cy="12" r="2" fill="currentColor"/>
        <path d="M10 10l4 4M14 10l-4 4" stroke="currentColor" stroke-width="1" opacity="0.3"/>
    </symbol>
    
    <!-- Code Icon -->
    <symbol id="icon-code" viewBox="0 0 24 24">
        <polyline points="7 8 3 12 7 16" stroke="currentColor" stroke-width="2" stroke-linecap="round" stroke-linejoin="round" fill="none"/>
        <polyline points="17 8 21 12 17 16" stroke="currentColor" stroke-width="2" stroke-linecap="round" stroke-linejoin="round" fill="none"/>
        <line x1="14" y1="4" x2="10" y2="20" stroke="currentColor" stroke-width="2" stroke-linecap="round"/>
    </symbol>
    
    <!-- Performance Icon -->
    <symbol id="icon-performance" viewBox="0 0 24 24">
        <path d="M3 12l4-4 4 4 4-8 4 8 2-2" stroke="currentColor" stroke-width="2" stroke-linecap="round" stroke-linejoin="round" fill="none"/>
        <circle cx="7" cy="8" r="1" fill="currentColor"/>
        <circle cx="11" cy="12" r="1" fill="currentColor"/>
        <circle cx="15" cy="4" r="1" fill="currentColor"/>
        <circle cx="19" cy="12" r="1" fill="currentColor"/>
        <circle cx="21" cy="10" r="1" fill="currentColor"/>
    </symbol>
    
    <!-- Security Icon -->
    <symbol id="icon-security" viewBox="0 0 24 24">
        <path d="M12 2L4 7v6c0 5 3.5 9.5 8 10.5 4.5-1 8-5.5 8-10.5V7l-8-5z" stroke="currentColor" stroke-width="2" fill="none"/>
        <path d="M9 11l2 2 4-4" stroke="currentColor" stroke-width="2" stroke-linecap="round" stroke-linejoin="round"/>
    </symbol>
    
    <!-- Collaboration Icon -->
    <symbol id="icon-collaboration" viewBox="0 0 24 24">
        <circle cx="8" cy="8" r="3" stroke="currentColor" stroke-width="2" fill="none"/>
        <circle cx="16" cy="16" r="3" stroke="currentColor" stroke-width="2" fill="none"/>
        <path d="M10.5 10.5l3 3" stroke="currentColor" stroke-width="2"/>
        <path d="M8 11v5a2 2 0 002 2h4" stroke="currentColor" stroke-width="2" stroke-linecap="round"/>
        <path d="M16 13V8a2 2 0 00-2-2h-4" stroke="currentColor" stroke-width="2" stroke-linecap="round"/>
    </symbol>
    
    <!-- Package Icon -->
    <symbol id="icon-package" viewBox="0 0 24 24">
        <path d="M12 2L2 7l10 5 10-5-10-5z" stroke="currentColor" stroke-width="2" stroke-linejoin="round" fill="none"/>
        <path d="M2 17l10 5 10-5" stroke="currentColor" stroke-width="2" stroke-linejoin="round" fill="none"/>
        <path d="M2 12l10 5 10-5" stroke="currentColor" stroke-width="2" stroke-linejoin="round" fill="none"/>
    </symbol>
    
    <!-- Terminal Icon -->
    <symbol id="icon-terminal" viewBox="0 0 24 24">
        <rect x="2" y="4" width="20" height="16" rx="2" stroke="currentColor" stroke-width="2" fill="none"/>
        <path d="M7 9l3 3-3 3" stroke="currentColor" stroke-width="2" stroke-linecap="round" stroke-linejoin="round"/>
        <line x1="13" y1="15" x2="17" y2="15" stroke="currentColor" stroke-width="2" stroke-linecap="round"/>
    </symbol>
    
    <!-- Dashboard Icon -->
    <symbol id="icon-dashboard" viewBox="0 0 24 24">
        <rect x="3" y="3" width="8" height="8" stroke="currentColor" stroke-width="2" fill="none"/>
        <rect x="13" y="3" width="8" height="8" stroke="currentColor" stroke-width="2" fill="none"/>
        <rect x="3" y="13" width="8" height="8" stroke="currentColor" stroke-width="2" fill="none"/>
        <rect x="13" y="13" width="8" height="8" stroke="currentColor" stroke-width="2" fill="none"/>
    </symbol>
</svg>
